{
    "asset": {
        "version": "2.0",
        "generator": "Open Asset Import Library (assimp v5.2.cf7d3637)"
    },
    "extensionsUsed": [
        "KHR_materials_volume",
        "FB_ngon_encoding"
    ],
    "accessors": [
        {
            "bufferView": 0,
            "byteOffset": 0,
            "componentType": 5126,
            "count": 149997,
            "type": "VEC3",
            "max": [
                0.14563891291618348,
                0.43738606572151186,
                0.2263823002576828
            ],
            "min": [
                -0.14563891291618348,
                1.1102230246251566e-16,
                -0.2263823002576828
            ]
        },
        {
            "bufferView": 1,
            "byteOffset": 0,
            "componentType": 5126,
            "count": 149997,
            "type": "VEC2",
            "max": [
                0.9988710284233093,
                0.999967098236084
            ],
            "min": [
                0.000014647921489086002,
                0.000013828277587890625
            ]
        },
        {
            "bufferView": 2,
            "byteOffset": 0,
            "componentType": 5125,
            "count": 149997,
            "type": "SCALAR",
            "max": [
                149996
            ],
            "min": [
                0
            ]
        }
    ],
    "buffers": [
        {
            "byteLength": 3599928,
            "uri": "result.bin"
        }
    ],
    "bufferViews": [
        {
            "buffer": 0,
            "byteOffset": 0,
            "byteLength": 1799964,
            "target": 34962
        },
        {
            "buffer": 0,
            "byteOffset": 1799964,
            "byteLength": 1199976,
            "target": 34962
        },
        {
            "buffer": 0,
            "byteOffset": 2999940,
            "byteLength": 599988,
            "target": 34963
        }
    ],
    "images": [
        {
            "name": "56ec3df1ca101b6d5b78098ad6ddc134",
            "uri": "data:image/jpeg;base64,"
        },
        {
            "name": "ac45c6dd2552d511719eb7e0d8639072",
            "uri": "data:image/jpeg;base64,"
        },
        {
            "name": "3b1ebd050b3fdbf058f51c52d4462bb1",
            "uri": "data:image/jpeg;base64,"
        }
    ],
    "materials": [
        {
            "name": "material",
            "pbrMetallicRoughness": {
                "baseColorTexture": {
                    "index": 0
                },
                "metallicFactor": 0.0
            },
            "normalTexture": {
                "index": 1
            },
            "occlusionTexture": {
                "index": 2
            }
        },
        {
            "name": "material"
        }
    ],
    "meshes": [
        {
            "name": "meshes[0]",
            "primitives": [
                {
                    "mode": 4,
                    "material": 0,
                    "indices": 2,
                    "attributes": {
                        "POSITION": 0,
                        "TEXCOORD_0": 1
                    }
                }
            ]
        }
    ],
    "nodes": [
        {
            "name": "nodes[0]",
            "mesh": 0
        }
    ],
    "samplers": [
        {}
    ],
    "scenes": [
        {
            "nodes": [
                0
            ]
        }
    ],
    "textures": [
        {
            "source": 0,
            "sampler": 0
        },
        {
            "source": 1,
            "sampler": 0
        },
        {
            "source": 2,
            "sampler": 0
        }
    ],
    "scene": 0
}