{"scene":0,"asset":{"generator":"FabConvert.com","version":"2.0"},"scenes":[{"name":"Scene","nodes":[0]}],"nodes":[{"name":"Node0","children":[1,2,3,4,5,6,7,8]},{"name":"Node1","mesh":0},{"name":"Node2","mesh":1},{"name":"Node3","mesh":2},{"name":"Node4","mesh":3},{"name":"Node5","mesh":4},{"name":"Node6","mesh":5},{"name":"Node7","mesh":6},{"name":"Node8","mesh":7}],"materials":[{"name":"#936947FF","pbrMetallicRoughness":{"baseColorFactor":[0.5764706,0.4117647,0.2784314,1.0],"metallicFactor":0.0,"roughnessFactor":1.0},"doubleSided":true}],"meshes":[{"name":"Mesh0","primitives":[{"indices":1,"material":0,"attributes":{"POSITION":0}}]},{"name":"Mesh0","primitives":[{"indices":3,"material":0,"attributes":{"POSITION":2}}]},{"name":"Mesh0","primitives":[{"indices":5,"material":0,"attributes":{"POSITION":4}}]},{"name":"Mesh0","primitives":[{"indices":7,"material":0,"attributes":{"POSITION":6}}]},{"name":"Mesh0","primitives":[{"indices":9,"material":0,"attributes":{"POSITION":8}}]},{"name":"Mesh0","primitives":[{"indices":11,"material":0,"attributes":{"POSITION":10}}]},{"name":"Mesh0","primitives":[{"indices":13,"material":0,"attributes":{"POSITION":12}}]},{"name":"Mesh0","primitives":[{"indices":15,"material":0,"attributes":{"POSITION":14}}]}],"accessors":[{"bufferView":0,"componentType":5126,"count":6,"type":"VEC3","min":[677.4176,-784.1794,0.0],"max":[1144.5428,123.25292,0.0]},{"bufferView":1,"componentType":5123,"count":12,"type":"SCALAR"},{"bufferView":2,"componentType":5126,"count":6,"type":"VEC3","min":[677.4176,-784.1794,367.25],"max":[1144.5428,123.25292,367.25]},{"bufferView":3,"componentType":5123,"count":12,"type":"SCALAR"},{"bufferView":4,"componentType":5126,"count":4,"type":"VEC3","min":[711.66626,92.046684,0.0],"max":[1144.5428,123.25292,367.25]},{"bufferView":5,"componentType":5123,"count":6,"type":"SCALAR"},{"bufferView":6,"componentType":5126,"count":4,"type":"VEC3","min":[677.4176,-691.368,0.0],"max":[711.66626,-351.8267,367.25]},{"bufferView":7,"componentType":5123,"count":6,"type":"SCALAR"},{"bufferView":8,"componentType":5126,"count":4,"type":"VEC3","min":[1081.3755,-784.1794,0.0],"max":[1144.5428,92.046684,367.25]},{"bufferView":9,"componentType":5123,"count":6,"type":"SCALAR"},{"bufferView":10,"componentType":5126,"count":4,"type":"VEC3","min":[861.3148,-784.1794,0.0],"max":[1081.3755,-784.1794,367.25]},{"bufferView":11,"componentType":5123,"count":6,"type":"SCALAR"},{"bufferView":12,"componentType":5126,"count":4,"type":"VEC3","min":[711.66626,-784.1794,0.0],"max":[861.3148,-691.368,367.25]},{"bufferView":13,"componentType":5123,"count":6,"type":"SCALAR"},{"bufferView":14,"componentType":5126,"count":4,"type":"VEC3","min":[677.4176,-351.8267,0.0],"max":[711.66626,123.25292,367.25]},{"bufferView":15,"componentType":5123,"count":6,"type":"SCALAR"}],"bufferViews":[{"target":34962,"buffer":0,"byteLength":72,"byteOffset":0},{"target":34963,"buffer":0,"byteLength":24,"byteOffset":72},{"target":34962,"buffer":0,"byteLength":72,"byteOffset":96},{"target":34963,"buffer":0,"byteLength":24,"byteOffset":168},{"target":34962,"buffer":0,"byteLength":48,"byteOffset":192},{"target":34963,"buffer":0,"byteLength":12,"byteOffset":240},{"target":34962,"buffer":0,"byteLength":48,"byteOffset":252},{"target":34963,"buffer":0,"byteLength":12,"byteOffset":300},{"target":34962,"buffer":0,"byteLength":48,"byteOffset":312},{"target":34963,"buffer":0,"byteLength":12,"byteOffset":360},{"target":34962,"buffer":0,"byteLength":48,"byteOffset":372},{"target":34963,"buffer":0,"byteLength":12,"byteOffset":420},{"target":34962,"buffer":0,"byteLength":48,"byteOffset":432},{"target":34963,"buffer":0,"byteLength":12,"byteOffset":480},{"target":34962,"buffer":0,"byteLength":48,"byteOffset":492},{"target":34963,"buffer":0,"byteLength":12,"byteOffset":540}],"buffers":[{"byteLength":552,"uri":"data:application/octet-stream;base64,"}]}