{"accessors" : [{"bufferView" : 0, "byteOffset" : 0, "componentType" : 5123, "count" : 660, "type" : "SCALAR", "max" : [239], "min" : [0]}, {"bufferView" : 1, "byteOffset" : 0, "componentType" : 5126, "count" : 240, "type" : "VEC3", "max" : [33.11069869995117, 751.9138793945312, 98.99210357666016], "min" : [20.953800201416016, 705.6220092773438, 86.83519744873047], "name" : "POSITION"}, {"bufferView" : 1, "byteOffset" : 12, "componentType" : 5126, "count" : 240, "type" : "VEC2", "max" : [-0.00800000037997961, 1.9937000274658203], "min" : [-1.0078999996185303, 0.9937000274658203], "name" : "TEXCOORD_0"}, {"bufferView" : 1, "byteOffset" : 20, "componentType" : 5126, "count" : 240, "type" : "VEC3", "max" : [0, -1.0000044107437134, -0], "min" : [0, -1.0000044107437134, -0], "name" : "NORMAL"}, {"bufferView" : 0, "byteOffset" : 1320, "componentType" : 5123, "count" : 18, "type" : "SCALAR", "max" : [9], "min" : [0]}, {"bufferView" : 2, "byteOffset" : 0, "componentType" : 5126, "count" : 10, "type" : "VEC3", "max" : [15.175299644470215, 797.1732788085938, -15.17590045928955], "min" : [-27.076000213623047, 759.67919921875, -95.768798828125], "name" : "POSITION"}, {"bufferView" : 2, "byteOffset" : 12, "componentType" : 5126, "count" : 10, "type" : "VEC2", "max" : [1, 1], "min" : [0, -0.0039000511169433594], "name" : "TEXCOORD_0"}, {"bufferView" : 2, "byteOffset" : 20, "componentType" : 5126, "count" : 10, "type" : "VEC3", "max" : [-0.00010000044130720198, 0.9002285599708557, -0.0003000012948177755], "min" : [-0.11700370907783508, -1.0000042915344238, -0.419413298368454], "name" : "NORMAL"}, {"bufferView" : 0, "byteOffset" : 1356, "componentType" : 5123, "count" : 6, "type" : "SCALAR", "max" : [5], "min" : [0]}, {"bufferView" : 3, "byteOffset" : 0, "componentType" : 5126, "count" : 6, "type" : "VEC3", "max" : [15.175299644470215, 797.1732788085938, -15.17590045928955], "min" : [-27.076000213623047, 759.67919921875, -95.768798828125], "name" : "POSITION"}, {"bufferView" : 3, "byteOffset" : 12, "componentType" : 5126, "count" : 6, "type" : "VEC2", "max" : [0.4230000078678131, 0.11080002784729004], "min" : [0.14800000190734863, 0.0787000060081482], "name" : "TEXCOORD_0"}, {"bufferView" : 3, "byteOffset" : 20, "componentType" : 5126, "count" : 6, "type" : "VEC3", "max" : [0.8565953373908997, -0, 0.0020000047516077757], "min" : [-1.000002384185791, -0, -0.5159971714019775], "name" : "NORMAL"}, {"bufferView" : 0, "byteOffset" : 1368, "componentType" : 5123, "count" : 660, "type" : "SCALAR", "max" : [239], "min" : [0]}, {"bufferView" : 4, "byteOffset" : 0, "componentType" : 5126, "count" : 240, "type" : "VEC3", "max" : [-18.588499069213867, 1030.171630859375, -87.34380340576172], "min" : [-30.745399475097656, 983.8798217773438, -99.50080108642578], "name" : "POSITION"}, {"bufferView" : 4, "byteOffset" : 12, "componentType" : 5126, "count" : 240, "type" : "VEC2", "max" : [-0.00800000037997961, 1.9937000274658203], "min" : [-1.0078999996185303, 0.9937000274658203], "name" : "TEXCOORD_0"}, {"bufferView" : 4, "byteOffset" : 20, "componentType" : 5126, "count" : 240, "type" : "VEC3", "max" : [0, -1.0000044107437134, -0], "min" : [0, -1.0000044107437134, -0], "name" : "NORMAL"}, {"bufferView" : 0, "byteOffset" : 2688, "componentType" : 5123, "count" : 12, "type" : "SCALAR", "max" : [7], "min" : [0]}, {"bufferView" : 5, "byteOffset" : 0, "componentType" : 5126, "count" : 8, "type" : "VEC3", "max" : [15.174799919128418, 938.0588989257812, -15.17590045928955], "min" : [-38.142799377441406, 901.6082763671875, -135.8748016357422], "name" : "POSITION"}, {"bufferView" : 5, "byteOffset" : 12, "componentType" : 5126, "count" : 8, "type" : "VEC2", "max" : [1, 1], "min" : [0, -0.034600019454956055], "name" : "TEXCOORD_0"}, {"bufferView" : 5, "byteOffset" : 20, "componentType" : 5126, "count" : 8, "type" : "VEC3", "max" : [0, 0.9601597189903259, 0], "min" : [-0.07509684562683105, -1.0000044107437134, -0.26918870210647583], "name" : "NORMAL"}, {"bufferView" : 0, "byteOffset" : 2712, "componentType" : 5123, "count" : 12, "type" : "SCALAR", "max" : [7], "min" : [0]}, {"bufferView" : 6, "byteOffset" : 0, "componentType" : 5126, "count" : 8, "type" : "VEC3", "max" : [15.174799919128418, 938.0588989257812, -15.17590045928955], "min" : [-38.142799377441406, 901.6082763671875, -135.8748016357422], "name" : "POSITION"}, {"bufferView" : 6, "byteOffset" : 12, "componentType" : 5126, "count" : 8, "type" : "VEC2", "max" : [0.4230000078678131, 0.22759997844696045], "min" : [-0, 0.196399986743927], "name" : "TEXCOORD_0"}, {"bufferView" : 6, "byteOffset" : 20, "componentType" : 5126, "count" : 8, "type" : "VEC3", "max" : [0.8999025225639343, 0, 0.09269986301660538], "min" : [-0.9956985712051392, 0, -0.4361012279987335], "name" : "NORMAL"}, {"bufferView" : 0, "byteOffset" : 2736, "componentType" : 5123, "count" : 6, "type" : "SCALAR", "max" : [3], "min" : [0]}, {"bufferView" : 7, "byteOffset" : 0, "componentType" : 5126, "count" : 4, "type" : "VEC3", "max" : [-37.633399963378906, 903.3800048828125, -135.73269653320312], "min" : [-38.142799377441406, 901.6082763671875, -135.8748016357422], "name" : "POSITION"}, {"bufferView" : 7, "byteOffset" : 12, "componentType" : 5126, "count" : 4, "type" : "VEC2", "max" : [0, 1], "min" : [0, 1], "name" : "TEXCOORD_0"}, {"bufferView" : 7, "byteOffset" : 20, "componentType" : 5126, "count" : 4, "type" : "VEC3", "max" : [-0.26870739459991455, -0, -0.9632264375686646], "min" : [-0.26870739459991455, -0, -0.9632264375686646], "name" : "NORMAL"}, {"bufferView" : 0, "byteOffset" : 2748, "componentType" : 5123, "count" : 660, "type" : "SCALAR", "max" : [239], "min" : [0]}, {"bufferView" : 8, "byteOffset" : 0, "componentType" : 5126, "count" : 240, "type" : "VEC3", "max" : [33.8744010925293, 1030.171630859375, 100.69519805908203], "min" : [21.71739959716797, 983.8798217773438, 88.53829956054688], "name" : "POSITION"}, {"bufferView" : 8, "byteOffset" : 12, "componentType" : 5126, "count" : 240, "type" : "VEC2", "max" : [-0.00800000037997961, 1.9937000274658203], "min" : [-1.0078999996185303, 0.9937000274658203], "name" : "TEXCOORD_0"}, {"bufferView" : 8, "byteOffset" : 20, "componentType" : 5126, "count" : 240, "type" : "VEC3", "max" : [0, -1.0000044107437134, -0], "min" : [0, -1.0000044107437134, -0], "name" : "NORMAL"}, {"bufferView" : 0, "byteOffset" : 4068, "componentType" : 5123, "count" : 660, "type" : "SCALAR", "max" : [239], "min" : [0]}, {"bufferView" : 9, "byteOffset" : 0, "componentType" : 5126, "count" : 240, "type" : "VEC3", "max" : [-30.828699111938477, 893.8223266601562, -127.1968994140625], "min" : [-42.98569869995117, 847.5302734375, -139.3538055419922], "name" : "POSITION"}, {"bufferView" : 9, "byteOffset" : 12, "componentType" : 5126, "count" : 240, "type" : "VEC2", "max" : [-0.00800000037997961, 1.9937000274658203], "min" : [-1.0078999996185303, 0.9937000274658203], "name" : "TEXCOORD_0"}, {"bufferView" : 9, "byteOffset" : 20, "componentType" : 5126, "count" : 240, "type" : "VEC3", "max" : [0, -1.0000044107437134, -0], "min" : [0, -1.0000044107437134, -0], "name" : "NORMAL"}, {"bufferView" : 0, "byteOffset" : 5388, "componentType" : 5123, "count" : 660, "type" : "SCALAR", "max" : [239], "min" : [0]}, {"bufferView" : 10, "byteOffset" : 0, "componentType" : 5126, "count" : 240, "type" : "VEC3", "max" : [43.415401458740234, 895.5927124023438, 138.9228057861328], "min" : [31.258499145507812, 849.30078125, 126.76580047607422], "name" : "POSITION"}, {"bufferView" : 10, "byteOffset" : 12, "componentType" : 5126, "count" : 240, "type" : "VEC2", "max" : [-0.00800000037997961, 1.9937000274658203], "min" : [-1.0078999996185303, 0.9937000274658203], "name" : "TEXCOORD_0"}, {"bufferView" : 10, "byteOffset" : 20, "componentType" : 5126, "count" : 240, "type" : "VEC3", "max" : [0, -1.0000044107437134, -0], "min" : [0, -1.0000044107437134, -0], "name" : "NORMAL"}, {"bufferView" : 0, "byteOffset" : 6708, "componentType" : 5123, "count" : 660, "type" : "SCALAR", "max" : [239], "min" : [0]}, {"bufferView" : 11, "byteOffset" : 0, "componentType" : 5126, "count" : 240, "type" : "VEC3", "max" : [-20.2721004486084, 751.915771484375, -86.95570373535156], "min" : [-32.42900085449219, 705.6239013671875, -99.11260223388672], "name" : "POSITION"}, {"bufferView" : 11, "byteOffset" : 12, "componentType" : 5126, "count" : 240, "type" : "VEC2", "max" : [-0.00800000037997961, 1.9937000274658203], "min" : [-1.0078999996185303, 0.9937000274658203], "name" : "TEXCOORD_0"}, {"bufferView" : 11, "byteOffset" : 20, "componentType" : 5126, "count" : 240, "type" : "VEC3", "max" : [0, -1.0000044107437134, -0], "min" : [0, -1.0000044107437134, -0], "name" : "NORMAL"}, {"bufferView" : 0, "byteOffset" : 8028, "componentType" : 5123, "count" : 18, "type" : "SCALAR", "max" : [9], "min" : [0]}, {"bufferView" : 12, "byteOffset" : 0, "componentType" : 5126, "count" : 10, "type" : "VEC3", "max" : [15.175299644470215, 1075.42919921875, -15.17590045928955], "min" : [-27.076000213623047, 1037.93505859375, -95.768798828125], "name" : "POSITION"}, {"bufferView" : 12, "byteOffset" : 12, "componentType" : 5126, "count" : 10, "type" : "VEC2", "max" : [1, 1], "min" : [0, -0.0039000511169433594], "name" : "TEXCOORD_0"}, {"bufferView" : 12, "byteOffset" : 20, "componentType" : 5126, "count" : 10, "type" : "VEC3", "max" : [-0.00010000044130720198, 0.9002285599708557, -0.0003000012948177755], "min" : [-0.11700370907783508, -1.0000042915344238, -0.419413298368454], "name" : "NORMAL"}, {"bufferView" : 0, "byteOffset" : 8064, "componentType" : 5123, "count" : 6, "type" : "SCALAR", "max" : [5], "min" : [0]}, {"bufferView" : 13, "byteOffset" : 0, "componentType" : 5126, "count" : 6, "type" : "VEC3", "max" : [15.175299644470215, 1075.42919921875, -15.17590045928955], "min" : [-27.076000213623047, 1037.93505859375, -95.768798828125], "name" : "POSITION"}, {"bufferView" : 13, "byteOffset" : 12, "componentType" : 5126, "count" : 6, "type" : "VEC2", "max" : [0.4230000078678131, 0.11080002784729004], "min" : [0.14800000190734863, 0.0787000060081482], "name" : "TEXCOORD_0"}, {"bufferView" : 13, "byteOffset" : 20, "componentType" : 5126, "count" : 6, "type" : "VEC3", "max" : [0.8565953373908997, -0, 0.0020000047516077757], "min" : [-1.000002384185791, -0, -0.5159971714019775], "name" : "NORMAL"}, {"bufferView" : 0, "byteOffset" : 8076, "componentType" : 5123, "count" : 12, "type" : "SCALAR", "max" : [7], "min" : [0]}, {"bufferView" : 14, "byteOffset" : 0, "componentType" : 5126, "count" : 8, "type" : "VEC3", "max" : [38.142799377441406, 938.0576782226562, 135.875], "min" : [-15.174799919128418, 901.607177734375, 15.17609977722168], "name" : "POSITION"}, {"bufferView" : 14, "byteOffset" : 12, "componentType" : 5126, "count" : 8, "type" : "VEC2", "max" : [1, 1], "min" : [0, -0.034600019454956055], "name" : "TEXCOORD_0"}, {"bufferView" : 14, "byteOffset" : 20, "componentType" : 5126, "count" : 8, "type" : "VEC3", "max" : [0.07509684562683105, 0.9601597189903259, 0.26918870210647583], "min" : [-0, -1.0000044107437134, -0], "name" : "NORMAL"}, {"bufferView" : 0, "byteOffset" : 8100, "componentType" : 5123, "count" : 12, "type" : "SCALAR", "max" : [7], "min" : [0]}, {"bufferView" : 15, "byteOffset" : 0, "componentType" : 5126, "count" : 8, "type" : "VEC3", "max" : [38.142799377441406, 938.0576782226562, 135.875], "min" : [-15.174799919128418, 901.607177734375, 15.17609977722168], "name" : "POSITION"}, {"bufferView" : 15, "byteOffset" : 12, "componentType" : 5126, "count" : 8, "type" : "VEC2", "max" : [0.4230000078678131, 0.22759997844696045], "min" : [-0, 0.196399986743927], "name" : "TEXCOORD_0"}, {"bufferView" : 15, "byteOffset" : 20, "componentType" : 5126, "count" : 8, "type" : "VEC3", "max" : [0.9956985712051392, 0, 0.4361012279987335], "min" : [-0.8999025225639343, 0, -0.09269986301660538], "name" : "NORMAL"}, {"bufferView" : 0, "byteOffset" : 8124, "componentType" : 5123, "count" : 6, "type" : "SCALAR", "max" : [3], "min" : [0]}, {"bufferView" : 16, "byteOffset" : 0, "componentType" : 5126, "count" : 4, "type" : "VEC3", "max" : [38.142799377441406, 903.3787841796875, 135.875], "min" : [37.633399963378906, 901.607177734375, 135.73289489746094], "name" : "POSITION"}, {"bufferView" : 16, "byteOffset" : 12, "componentType" : 5126, "count" : 4, "type" : "VEC2", "max" : [0, 1], "min" : [0, 1], "name" : "TEXCOORD_0"}, {"bufferView" : 16, "byteOffset" : 20, "componentType" : 5126, "count" : 4, "type" : "VEC3", "max" : [0.26870739459991455, -0, 0.9632264375686646], "min" : [0.26870739459991455, -0, 0.9632264375686646], "name" : "NORMAL"}, {"bufferView" : 0, "byteOffset" : 8136, "componentType" : 5123, "count" : 18, "type" : "SCALAR", "max" : [9], "min" : [0]}, {"bufferView" : 17, "byteOffset" : 0, "componentType" : 5126, "count" : 10, "type" : "VEC3", "max" : [27.07699966430664, 797.1721801757812, 95.76899719238281], "min" : [-15.174300193786621, 759.677978515625, 15.17609977722168], "name" : "POSITION"}, {"bufferView" : 17, "byteOffset" : 12, "componentType" : 5126, "count" : 10, "type" : "VEC2", "max" : [1, 1], "min" : [0, -0.0039000511169433594], "name" : "TEXCOORD_0"}, {"bufferView" : 17, "byteOffset" : 20, "componentType" : 5126, "count" : 10, "type" : "VEC3", "max" : [0.11700370907783508, 0.9002285599708557, 0.419413298368454], "min" : [0.00010000044130720198, -1.0000042915344238, 0.0003000012948177755], "name" : "NORMAL"}, {"bufferView" : 0, "byteOffset" : 8172, "componentType" : 5123, "count" : 6, "type" : "SCALAR", "max" : [5], "min" : [0]}, {"bufferView" : 18, "byteOffset" : 0, "componentType" : 5126, "count" : 6, "type" : "VEC3", "max" : [27.07699966430664, 797.1721801757812, 95.76899719238281], "min" : [-15.174300193786621, 759.677978515625, 15.17609977722168], "name" : "POSITION"}, {"bufferView" : 18, "byteOffset" : 12, "componentType" : 5126, "count" : 6, "type" : "VEC2", "max" : [0.4230000078678131, 0.11080002784729004], "min" : [0.14800000190734863, 0.0787000060081482], "name" : "TEXCOORD_0"}, {"bufferView" : 18, "byteOffset" : 20, "componentType" : 5126, "count" : 6, "type" : "VEC3", "max" : [1.000002384185791, -0, 0.5159971714019775], "min" : [-0.8565953373908997, -0, -0.0020000047516077757], "name" : "NORMAL"}, {"bufferView" : 0, "byteOffset" : 8184, "componentType" : 5123, "count" : 18, "type" : "SCALAR", "max" : [9], "min" : [0]}, {"bufferView" : 19, "byteOffset" : 0, "componentType" : 5126, "count" : 10, "type" : "VEC3", "max" : [27.07699966430664, 1075.427978515625, 95.76899719238281], "min" : [-15.174300193786621, 1037.933837890625, 15.17609977722168], "name" : "POSITION"}, {"bufferView" : 19, "byteOffset" : 12, "componentType" : 5126, "count" : 10, "type" : "VEC2", "max" : [1, 1], "min" : [0, -0.0039000511169433594], "name" : "TEXCOORD_0"}, {"bufferView" : 19, "byteOffset" : 20, "componentType" : 5126, "count" : 10, "type" : "VEC3", "max" : [0.11700370907783508, 0.9002285599708557, 0.419413298368454], "min" : [0.00010000044130720198, -1.0000042915344238, 0.0003000012948177755], "name" : "NORMAL"}, {"bufferView" : 0, "byteOffset" : 8220, "componentType" : 5123, "count" : 6, "type" : "SCALAR", "max" : [5], "min" : [0]}, {"bufferView" : 20, "byteOffset" : 0, "componentType" : 5126, "count" : 6, "type" : "VEC3", "max" : [27.07699966430664, 1075.427978515625, 95.76899719238281], "min" : [-15.174300193786621, 1037.933837890625, 15.17609977722168], "name" : "POSITION"}, {"bufferView" : 20, "byteOffset" : 12, "componentType" : 5126, "count" : 6, "type" : "VEC2", "max" : [0.4230000078678131, 0.11080002784729004], "min" : [0.14800000190734863, 0.0787000060081482], "name" : "TEXCOORD_0"}, {"bufferView" : 20, "byteOffset" : 20, "componentType" : 5126, "count" : 6, "type" : "VEC3", "max" : [1.000002384185791, -0, 0.5159971714019775], "min" : [-0.8565953373908997, -0, -0.0020000047516077757], "name" : "NORMAL"}, {"bufferView" : 0, "byteOffset" : 8232, "componentType" : 5123, "count" : 108, "type" : "SCALAR", "max" : [67], "min" : [0]}, {"bufferView" : 21, "byteOffset" : 0, "componentType" : 5126, "count" : 68, "type" : "VEC3", "max" : [72.75309753417969, 1165.8975830078125, 72.75140380859375], "min" : [-72.75240325927734, 0, -72.75420379638672], "name" : "POSITION"}, {"bufferView" : 21, "byteOffset" : 12, "componentType" : 5126, "count" : 68, "type" : "VEC2", "max" : [0.7102000117301941, 1], "min" : [0.29089999198913574, 0.0012000203132629395], "name" : "TEXCOORD_0"}, {"bufferView" : 21, "byteOffset" : 20, "componentType" : 5126, "count" : 68, "type" : "VEC3", "max" : [0.9632264375686646, 1.0000044107437134, 0.9632264375686646], "min" : [-0.9632264375686646, -0.8574812412261963, -0.9632264375686646], "name" : "NORMAL"}, {"bufferView" : 0, "byteOffset" : 8448, "componentType" : 5123, "count" : 18, "type" : "SCALAR", "max" : [11], "min" : [0]}, {"bufferView" : 22, "byteOffset" : 0, "componentType" : 5126, "count" : 12, "type" : "VEC3", "max" : [26.49410057067871, 1165.8975830078125, 25.394699096679688], "min" : [-26.298200607299805, 1075.42919921875, -24.69770050048828], "name" : "POSITION"}, {"bufferView" : 22, "byteOffset" : 12, "componentType" : 5126, "count" : 12, "type" : "VEC2", "max" : [1, 1], "min" : [0, -0.9973000288009644], "name" : "TEXCOORD_0"}, {"bufferView" : 22, "byteOffset" : 20, "componentType" : 5126, "count" : 12, "type" : "VEC3", "max" : [0.255309522151947, 0.3123116195201874, 0.9150340557098389], "min" : [-0.26870739459991455, 0, -0.9632264375686646], "name" : "NORMAL"}, {"bufferView" : 0, "byteOffset" : 8484, "componentType" : 5123, "count" : 6, "type" : "SCALAR", "max" : [3], "min" : [0]}, {"bufferView" : 23, "byteOffset" : 0, "componentType" : 5126, "count" : 4, "type" : "VEC3", "max" : [0.2802000045776367, 1160.1282958984375, -6.650400161743164], "min" : [-7.566699981689453, 1160.1282958984375, -19.47170066833496], "name" : "POSITION"}, {"bufferView" : 23, "byteOffset" : 12, "componentType" : 5126, "count" : 4, "type" : "VEC2", "max" : [0, 1], "min" : [0, 1], "name" : "TEXCOORD_0"}, {"bufferView" : 23, "byteOffset" : 20, "componentType" : 5126, "count" : 4, "type" : "VEC3", "max" : [0, -1.0000044107437134, -0], "min" : [0, -1.0000044107437134, -0], "name" : "NORMAL"}], "asset" : {"generator" : "Aspose.3D 24.9.1", "version" : "2.0"}, "buffers" : [{"uri" : "data:application/octet-stream;base64,", "byteLength" : 60688}], "bufferViews" : [{"buffer" : 0, "byteOffset" : 0, "byteLength" : 8496, "target" : 34963}, {"buffer" : 0, "byteOffset" : 8500, "byteLength" : 7680, "byteStride" : 32, "target" : 34962}, {"buffer" : 0, "byteOffset" : 16184, "byteLength" : 320, "byteStride" : 32, "target" : 34962}, {"buffer" : 0, "byteOffset" : 16508, "byteLength" : 192, "byteStride" : 32, "target" : 34962}, {"buffer" : 0, "byteOffset" : 16704, "byteLength" : 7680, "byteStride" : 32, "target" : 34962}, {"buffer" : 0, "byteOffset" : 24388, "byteLength" : 256, "byteStride" : 32, "target" : 34962}, {"buffer" : 0, "byteOffset" : 24648, "byteLength" : 256, "byteStride" : 32, "target" : 34962}, {"buffer" : 0, "byteOffset" : 24908, "byteLength" : 128, "byteStride" : 32, "target" : 34962}, {"buffer" : 0, "byteOffset" : 25040, "byteLength" : 7680, "byteStride" : 32, "target" : 34962}, {"buffer" : 0, "byteOffset" : 32724, "byteLength" : 7680, "byteStride" : 32, "target" : 34962}, {"buffer" : 0, "byteOffset" : 40408, "byteLength" : 7680, "byteStride" : 32, "target" : 34962}, {"buffer" : 0, "byteOffset" : 48092, "byteLength" : 7680, "byteStride" : 32, "target" : 34962}, {"buffer" : 0, "byteOffset" : 55776, "byteLength" : 320, "byteStride" : 32, "target" : 34962}, {"buffer" : 0, "byteOffset" : 56100, "byteLength" : 192, "byteStride" : 32, "target" : 34962}, {"buffer" : 0, "byteOffset" : 56296, "byteLength" : 256, "byteStride" : 32, "target" : 34962}, {"buffer" : 0, "byteOffset" : 56556, "byteLength" : 256, "byteStride" : 32, "target" : 34962}, {"buffer" : 0, "byteOffset" : 56816, "byteLength" : 128, "byteStride" : 32, "target" : 34962}, {"buffer" : 0, "byteOffset" : 56948, "byteLength" : 320, "byteStride" : 32, "target" : 34962}, {"buffer" : 0, "byteOffset" : 57272, "byteLength" : 192, "byteStride" : 32, "target" : 34962}, {"buffer" : 0, "byteOffset" : 57468, "byteLength" : 320, "byteStride" : 32, "target" : 34962}, {"buffer" : 0, "byteOffset" : 57792, "byteLength" : 192, "byteStride" : 32, "target" : 34962}, {"buffer" : 0, "byteOffset" : 57988, "byteLength" : 2176, "byteStride" : 32, "target" : 34962}, {"buffer" : 0, "byteOffset" : 60168, "byteLength" : 384, "byteStride" : 32, "target" : 34962}, {"buffer" : 0, "byteOffset" : 60556, "byteLength" : 128, "byteStride" : 32, "target" : 34962}], "meshes" : [{"primitives" : [{"attributes" : {"POSITION" : 1, "TEXCOORD_0" : 2, "NORMAL" : 3}, "indices" : 0, "mode" : 4}], "name" : ""}, {"primitives" : [{"attributes" : {"POSITION" : 5, "TEXCOORD_0" : 6, "NORMAL" : 7}, "indices" : 4, "mode" : 4}, {"attributes" : {"POSITION" : 9, "TEXCOORD_0" : 10, "NORMAL" : 11}, "indices" : 8, "mode" : 4}], "name" : ""}, {"primitives" : [{"attributes" : {"POSITION" : 13, "TEXCOORD_0" : 14, "NORMAL" : 15}, "indices" : 12, "mode" : 4}], "name" : ""}, {"primitives" : [{"attributes" : {"POSITION" : 17, "TEXCOORD_0" : 18, "NORMAL" : 19}, "indices" : 16, "mode" : 4}, {"attributes" : {"POSITION" : 21, "TEXCOORD_0" : 22, "NORMAL" : 23}, "indices" : 20, "mode" : 4}, {"attributes" : {"POSITION" : 25, "TEXCOORD_0" : 26, "NORMAL" : 27}, "indices" : 24, "mode" : 4}], "name" : ""}, {"primitives" : [{"attributes" : {"POSITION" : 29, "TEXCOORD_0" : 30, "NORMAL" : 31}, "indices" : 28, "mode" : 4}], "name" : ""}, {"primitives" : [{"attributes" : {"POSITION" : 33, "TEXCOORD_0" : 34, "NORMAL" : 35}, "indices" : 32, "mode" : 4}], "name" : ""}, {"primitives" : [{"attributes" : {"POSITION" : 37, "TEXCOORD_0" : 38, "NORMAL" : 39}, "indices" : 36, "mode" : 4}], "name" : ""}, {"primitives" : [{"attributes" : {"POSITION" : 41, "TEXCOORD_0" : 42, "NORMAL" : 43}, "indices" : 40, "mode" : 4}], "name" : ""}, {"primitives" : [{"attributes" : {"POSITION" : 45, "TEXCOORD_0" : 46, "NORMAL" : 47}, "indices" : 44, "mode" : 4}, {"attributes" : {"POSITION" : 49, "TEXCOORD_0" : 50, "NORMAL" : 51}, "indices" : 48, "mode" : 4}], "name" : ""}, {"primitives" : [{"attributes" : {"POSITION" : 53, "TEXCOORD_0" : 54, "NORMAL" : 55}, "indices" : 52, "mode" : 4}, {"attributes" : {"POSITION" : 57, "TEXCOORD_0" : 58, "NORMAL" : 59}, "indices" : 56, "mode" : 4}, {"attributes" : {"POSITION" : 61, "TEXCOORD_0" : 62, "NORMAL" : 63}, "indices" : 60, "mode" : 4}], "name" : ""}, {"primitives" : [{"attributes" : {"POSITION" : 65, "TEXCOORD_0" : 66, "NORMAL" : 67}, "indices" : 64, "mode" : 4}, {"attributes" : {"POSITION" : 69, "TEXCOORD_0" : 70, "NORMAL" : 71}, "indices" : 68, "mode" : 4}], "name" : ""}, {"primitives" : [{"attributes" : {"POSITION" : 73, "TEXCOORD_0" : 74, "NORMAL" : 75}, "indices" : 72, "mode" : 4}, {"attributes" : {"POSITION" : 77, "TEXCOORD_0" : 78, "NORMAL" : 79}, "indices" : 76, "mode" : 4}], "name" : ""}, {"primitives" : [{"attributes" : {"POSITION" : 81, "TEXCOORD_0" : 82, "NORMAL" : 83}, "indices" : 80, "mode" : 4}, {"attributes" : {"POSITION" : 85, "TEXCOORD_0" : 86, "NORMAL" : 87}, "indices" : 84, "mode" : 4}, {"attributes" : {"POSITION" : 89, "TEXCOORD_0" : 90, "NORMAL" : 91}, "indices" : 88, "mode" : 4}], "name" : ""}], "nodes" : [{"mesh" : 0, "name" : "Group_007"}, {"mesh" : 1, "name" : "Min_treugol_004"}, {"mesh" : 2, "name" : "Group_006"}, {"mesh" : 3, "name" : "Treugol_Big_002"}, {"mesh" : 4, "name" : "Group_005"}, {"mesh" : 5, "name" : "Group_004"}, {"mesh" : 6, "name" : "Group_003"}, {"mesh" : 7, "name" : "Group_002"}, {"mesh" : 8, "name" : "Min_treugol_003"}, {"mesh" : 9, "name" : "Treugol_Big_001"}, {"mesh" : 10, "name" : "Min_treugol_002"}, {"mesh" : 11, "name" : "Min_treugol_001"}, {"mesh" : 12, "name" : "Group_001"}], "scene" : 0, "scenes" : [{"nodes" : [0, 1, 2, 3, 4, 5, 6, 7, 8, 9, 10, 11, 12]}]}